<?xml version="1.0" encoding="utf-8"?>
<!-- Generator: Adobe Illustrator 14.0.0, SVG Export Plug-In . SVG Version: 6.00 Build 43363)  -->
<!DOCTYPE svg PUBLIC "-//W3C//DTD SVG 1.1//EN" "http://www.w3.org/Graphics/SVG/1.1/DTD/svg11.dtd">
<svg version="1.1" xmlns="http://www.w3.org/2000/svg" xmlns:xlink="http://www.w3.org/1999/xlink" x="0px" y="0px" width="250px"
	 height="70px" viewBox="0 0 250 70" enable-background="new 0 0 250 70" xml:space="preserve">
<g id="Layer_2">
	<rect fill="#303030" width="250" height="70"/>
</g>
<g id="Layer_1">
	<linearGradient id="SVGID_1_" gradientUnits="userSpaceOnUse" x1="127.1426" y1="54.667" x2="127.1426" y2="21.6661">
		<stop  offset="0" style="stop-color:#000000;stop-opacity:0.8"/>
		<stop  offset="1" style="stop-color:#121212"/>
	</linearGradient>
	<path fill="url(#SVGID_1_)" d="M25.822,49.215c0,1.416-0.224,2.51-0.672,3.281c-0.469,0.813-1.156,1.414-2.063,1.805
		s-1.979,0.586-3.219,0.586c-0.552,0-1.049-0.031-1.492-0.094c-0.442-0.063-0.862-0.151-1.258-0.266v-3.031
		c0.333,0.094,0.706,0.177,1.117,0.25c0.412,0.072,0.805,0.109,1.18,0.109c0.5,0,0.938-0.058,1.313-0.172
		c0.375-0.115,0.677-0.313,0.906-0.594c0.177-0.209,0.302-0.495,0.375-0.859c0.073-0.365,0.109-0.803,0.109-1.313V32.09h3.703
		V49.215z M22.025,24.605h3.891v4.016h-3.891V24.605z M44.416,39.668c0,1.188-0.177,2.271-0.531,3.25
		c-0.354,0.979-0.862,1.818-1.523,2.516c-0.662,0.698-1.461,1.237-2.398,1.617s-1.984,0.57-3.141,0.57
		c-1.188,0-2.253-0.19-3.195-0.57c-0.943-0.38-1.742-0.919-2.398-1.617c-0.656-0.697-1.159-1.536-1.508-2.516
		c-0.349-0.979-0.523-2.063-0.523-3.25s0.177-2.271,0.531-3.25c0.354-0.979,0.862-1.817,1.523-2.516
		c0.661-0.697,1.461-1.236,2.398-1.617c0.938-0.38,1.984-0.57,3.141-0.57c1.188,0,2.252,0.19,3.195,0.57
		c0.942,0.381,1.742,0.92,2.398,1.617c0.656,0.698,1.159,1.537,1.508,2.516C44.241,37.397,44.416,38.48,44.416,39.668z
		 M40.587,39.668c0-0.802-0.094-1.51-0.281-2.125c-0.188-0.614-0.448-1.13-0.781-1.547c-0.333-0.416-0.734-0.729-1.203-0.938
		c-0.469-0.208-0.979-0.313-1.531-0.313c-0.542,0-1.044,0.104-1.508,0.313c-0.464,0.209-0.862,0.521-1.195,0.938
		c-0.333,0.417-0.594,0.933-0.781,1.547c-0.188,0.615-0.281,1.323-0.281,2.125c0,0.803,0.094,1.511,0.281,2.125
		c0.188,0.615,0.45,1.128,0.789,1.539c0.338,0.412,0.739,0.725,1.203,0.938c0.463,0.214,0.971,0.32,1.523,0.32
		c0.552,0,1.057-0.106,1.516-0.32c0.458-0.213,0.854-0.525,1.188-0.938c0.333-0.411,0.594-0.924,0.781-1.539
		C40.494,41.179,40.587,40.471,40.587,39.668z M47.697,24.605h3.891v4.016h-3.891V24.605z M47.791,32.09h3.703V47.23h-3.703V32.09z
		 M59.056,34.199h0.063c0.219-0.313,0.495-0.619,0.828-0.922c0.333-0.302,0.713-0.567,1.141-0.797
		c0.427-0.229,0.898-0.414,1.414-0.555s1.065-0.211,1.648-0.211c0.552,0,1.086,0.063,1.602,0.188s0.987,0.32,1.414,0.586
		c0.427,0.266,0.805,0.609,1.133,1.031s0.586,0.925,0.773,1.508c0.104,0.323,0.174,0.675,0.211,1.055
		c0.036,0.381,0.055,0.82,0.055,1.32v9.828h-3.703v-9.25c0-0.406-0.016-0.755-0.047-1.047c-0.031-0.291-0.089-0.547-0.172-0.766
		c-0.188-0.479-0.472-0.822-0.852-1.031c-0.38-0.208-0.841-0.313-1.383-0.313c-0.719,0-1.409,0.17-2.07,0.508
		c-0.662,0.339-1.248,0.831-1.758,1.477V47.23H55.65V32.09h3.063L59.056,34.199z M82.306,45.621h-0.063
		c-0.208,0.219-0.458,0.443-0.75,0.672c-0.292,0.229-0.625,0.445-1,0.648s-0.792,0.367-1.25,0.492
		c-0.458,0.125-0.953,0.188-1.484,0.188c-0.719,0-1.391-0.112-2.016-0.336s-1.162-0.547-1.609-0.969
		c-0.448-0.422-0.8-0.932-1.055-1.531c-0.255-0.599-0.383-1.268-0.383-2.008c0-0.813,0.148-1.541,0.445-2.188
		c0.297-0.646,0.711-1.192,1.242-1.641c0.531-0.447,1.167-0.789,1.906-1.023c0.739-0.234,1.557-0.352,2.453-0.352
		c0.656,0,1.26,0.042,1.813,0.125c0.552,0.084,1.036,0.183,1.453,0.297v-0.609c0-0.354-0.06-0.695-0.18-1.023
		c-0.12-0.328-0.313-0.619-0.578-0.875c-0.266-0.255-0.612-0.458-1.039-0.609c-0.427-0.15-0.948-0.227-1.563-0.227
		c-0.75,0-1.5,0.084-2.25,0.25c-0.75,0.167-1.563,0.417-2.438,0.75v-2.891c0.76-0.333,1.567-0.588,2.422-0.766
		c0.854-0.177,1.75-0.271,2.688-0.281c1.104,0,2.07,0.136,2.898,0.406c0.828,0.271,1.521,0.644,2.078,1.117
		c0.557,0.475,0.974,1.034,1.25,1.68c0.276,0.646,0.414,1.35,0.414,2.109v5.703c0,1,0.01,1.859,0.031,2.578
		c0.021,0.719,0.042,1.359,0.063,1.922h-3.344L82.306,45.621z M82.009,40.777c-0.354-0.083-0.761-0.158-1.219-0.227
		c-0.458-0.067-0.922-0.102-1.391-0.102c-0.906,0-1.623,0.18-2.148,0.539c-0.526,0.359-0.789,0.909-0.789,1.648
		c0,0.344,0.06,0.644,0.18,0.898c0.12,0.256,0.281,0.467,0.484,0.633c0.203,0.167,0.44,0.292,0.711,0.375
		c0.271,0.084,0.557,0.125,0.859,0.125c0.375,0,0.729-0.049,1.063-0.148c0.333-0.099,0.641-0.224,0.922-0.375
		c0.281-0.15,0.534-0.32,0.758-0.508c0.224-0.188,0.414-0.369,0.57-0.547V40.777z M96.572,42.84c0-0.322-0.091-0.588-0.273-0.797
		c-0.183-0.208-0.425-0.383-0.727-0.523s-0.648-0.263-1.039-0.367c-0.391-0.104-0.8-0.208-1.227-0.313
		c-0.542-0.146-1.063-0.314-1.563-0.508c-0.5-0.192-0.94-0.445-1.32-0.758c-0.38-0.313-0.683-0.705-0.906-1.18
		c-0.224-0.474-0.336-1.055-0.336-1.742c0-0.844,0.151-1.575,0.453-2.195c0.302-0.619,0.711-1.133,1.227-1.539
		s1.114-0.708,1.797-0.906c0.683-0.197,1.403-0.297,2.164-0.297c0.927,0,1.797,0.076,2.609,0.227
		c0.813,0.151,1.547,0.347,2.203,0.586v3.016c-0.344-0.114-0.706-0.221-1.086-0.32c-0.38-0.099-0.766-0.185-1.156-0.258
		c-0.391-0.072-0.778-0.133-1.164-0.18s-0.75-0.07-1.094-0.07c-0.438,0-0.808,0.042-1.109,0.125
		c-0.302,0.084-0.547,0.195-0.734,0.336s-0.323,0.303-0.406,0.484c-0.083,0.183-0.125,0.373-0.125,0.57
		c0,0.344,0.091,0.625,0.273,0.844s0.435,0.396,0.758,0.531c0.323,0.136,0.661,0.248,1.016,0.336
		c0.354,0.089,0.698,0.175,1.031,0.258c0.521,0.125,1.042,0.276,1.563,0.453c0.521,0.178,0.989,0.425,1.406,0.742
		c0.417,0.318,0.758,0.729,1.023,1.234c0.266,0.506,0.398,1.148,0.398,1.93c0,0.854-0.161,1.6-0.484,2.234
		c-0.323,0.636-0.773,1.164-1.352,1.586s-1.271,0.734-2.078,0.938s-1.695,0.305-2.664,0.305c-0.958,0-1.82-0.076-2.586-0.227
		c-0.766-0.151-1.398-0.341-1.898-0.57V43.84c0.813,0.303,1.563,0.508,2.25,0.617s1.328,0.164,1.922,0.164
		c0.458,0,0.886-0.033,1.281-0.102c0.396-0.067,0.737-0.174,1.023-0.32c0.286-0.146,0.513-0.33,0.68-0.555
		C96.489,43.421,96.572,43.152,96.572,42.84z M113.556,33.793l0.156-1.703h3.25v22.406h-3.703v-6.297
		c0-0.448,0.005-0.862,0.016-1.242s0.021-0.674,0.031-0.883h-0.031c-0.229,0.188-0.492,0.373-0.789,0.555
		c-0.297,0.183-0.622,0.35-0.977,0.5s-0.739,0.271-1.156,0.359c-0.417,0.088-0.859,0.133-1.328,0.133
		c-0.802,0-1.586-0.144-2.352-0.43s-1.448-0.739-2.047-1.359c-0.599-0.619-1.078-1.419-1.438-2.398
		c-0.359-0.979-0.539-2.141-0.539-3.484c0-1.333,0.185-2.521,0.555-3.563c0.37-1.041,0.862-1.906,1.477-2.594
		s1.32-1.205,2.117-1.555c0.797-0.349,1.617-0.523,2.461-0.523c0.906,0,1.722,0.19,2.445,0.57c0.724,0.381,1.32,0.883,1.789,1.508
		H113.556z M109.947,44.668c0.375,0,0.729-0.047,1.063-0.141s0.641-0.213,0.922-0.359c0.281-0.146,0.534-0.307,0.758-0.484
		c0.224-0.177,0.414-0.354,0.57-0.531v-6.719c-0.386-0.469-0.854-0.877-1.406-1.227c-0.552-0.349-1.156-0.528-1.813-0.539
		c-0.375,0-0.769,0.076-1.18,0.227c-0.411,0.151-0.8,0.42-1.164,0.805c-0.364,0.386-0.659,0.92-0.883,1.602
		c-0.224,0.683-0.336,1.514-0.336,2.492c0,0.761,0.073,1.44,0.219,2.039c0.146,0.6,0.364,1.109,0.656,1.531s0.653,0.745,1.086,0.969
		C108.872,44.557,109.374,44.668,109.947,44.668z M127.713,47.621c-1.521,0-2.781-0.258-3.781-0.773
		c-1-0.516-1.755-1.211-2.266-2.086c-0.271-0.469-0.472-0.984-0.602-1.547s-0.195-1.188-0.195-1.875v-9.25h3.704v8.859
		c0,0.511,0.035,0.951,0.109,1.32c0.072,0.37,0.182,0.69,0.328,0.961c0.25,0.459,0.604,0.8,1.063,1.023
		c0.457,0.225,1.004,0.336,1.641,0.336c0.666,0,1.236-0.125,1.711-0.375c0.473-0.25,0.83-0.63,1.07-1.141
		c0.238-0.489,0.359-1.172,0.359-2.047V32.09h3.703v9.25c0,1.229-0.215,2.266-0.641,3.109c-0.24,0.479-0.551,0.914-0.93,1.305
		c-0.381,0.391-0.828,0.725-1.344,1c-0.516,0.276-1.1,0.489-1.75,0.641C129.24,47.545,128.514,47.621,127.713,47.621z
		 M147.369,45.621h-0.063c-0.209,0.219-0.459,0.443-0.75,0.672c-0.293,0.229-0.625,0.445-1,0.648s-0.793,0.367-1.25,0.492
		c-0.459,0.125-0.953,0.188-1.484,0.188c-0.719,0-1.391-0.112-2.016-0.336s-1.162-0.547-1.609-0.969
		c-0.449-0.422-0.801-0.932-1.055-1.531c-0.256-0.599-0.383-1.268-0.383-2.008c0-0.813,0.148-1.541,0.445-2.188
		c0.297-0.646,0.711-1.192,1.242-1.641c0.531-0.447,1.166-0.789,1.906-1.023c0.738-0.234,1.557-0.352,2.453-0.352
		c0.656,0,1.26,0.042,1.813,0.125c0.551,0.084,1.035,0.183,1.453,0.297v-0.609c0-0.354-0.061-0.695-0.18-1.023
		c-0.121-0.328-0.313-0.619-0.578-0.875c-0.266-0.255-0.613-0.458-1.039-0.609c-0.428-0.15-0.949-0.227-1.563-0.227
		c-0.75,0-1.5,0.084-2.25,0.25c-0.75,0.167-1.563,0.417-2.438,0.75v-2.891c0.76-0.333,1.566-0.588,2.422-0.766
		c0.854-0.177,1.75-0.271,2.688-0.281c1.104,0,2.07,0.136,2.898,0.406c0.828,0.271,1.52,0.644,2.078,1.117
		c0.557,0.475,0.973,1.034,1.25,1.68c0.275,0.646,0.414,1.35,0.414,2.109v5.703c0,1,0.01,1.859,0.031,2.578
		c0.02,0.719,0.041,1.359,0.063,1.922h-3.344L147.369,45.621z M147.072,40.777c-0.355-0.083-0.762-0.158-1.219-0.227
		c-0.459-0.067-0.922-0.102-1.391-0.102c-0.906,0-1.623,0.18-2.148,0.539c-0.527,0.359-0.789,0.909-0.789,1.648
		c0,0.344,0.059,0.644,0.18,0.898c0.119,0.256,0.281,0.467,0.484,0.633c0.203,0.167,0.439,0.292,0.711,0.375
		c0.27,0.084,0.557,0.125,0.859,0.125c0.375,0,0.729-0.049,1.063-0.148c0.332-0.099,0.641-0.224,0.922-0.375
		c0.281-0.15,0.533-0.32,0.758-0.508c0.223-0.188,0.414-0.369,0.57-0.547V40.777z M154.15,39.965c0-1.322,0.182-2.502,0.547-3.539
		c0.363-1.036,0.861-1.906,1.492-2.609c0.629-0.703,1.352-1.229,2.164-1.578c0.813-0.349,1.656-0.523,2.531-0.523
		c0.406,0,0.791,0.037,1.156,0.109c0.363,0.073,0.707,0.172,1.031,0.297c0.322,0.125,0.625,0.266,0.906,0.422
		s0.541,0.318,0.781,0.484h0.031c-0.012-0.208-0.02-0.502-0.023-0.883c-0.006-0.38-0.008-0.794-0.008-1.242v-6.297h3.703V42.73
		c0,1,0.01,1.859,0.031,2.578c0.02,0.719,0.041,1.359,0.063,1.922h-3.344l-0.156-1.609h-0.063c-0.219,0.261-0.482,0.516-0.789,0.766
		c-0.309,0.25-0.646,0.467-1.016,0.648c-0.371,0.183-0.777,0.325-1.219,0.43c-0.443,0.104-0.926,0.156-1.445,0.156
		c-0.824,0-1.613-0.146-2.367-0.438c-0.756-0.291-1.434-0.742-2.031-1.352c-0.6-0.609-1.078-1.406-1.438-2.391
		S154.15,41.299,154.15,39.965z M161.447,44.668c0.363,0,0.711-0.047,1.039-0.141s0.637-0.219,0.93-0.375
		c0.291-0.156,0.549-0.328,0.773-0.516c0.223-0.188,0.414-0.369,0.57-0.547v-7.188c-0.438-0.354-0.928-0.648-1.469-0.883
		c-0.543-0.234-1.115-0.352-1.719-0.352c-0.387,0-0.789,0.078-1.211,0.234s-0.809,0.422-1.156,0.797
		c-0.35,0.375-0.641,0.896-0.875,1.563c-0.234,0.667-0.352,1.516-0.352,2.547c0,1.521,0.293,2.709,0.883,3.563
		C159.449,44.226,160.311,44.658,161.447,44.668z M173.322,43.059h4.203v4.172h-4.203V43.059z M193.041,46.902
		c-0.469,0.198-1.043,0.367-1.719,0.508c-0.678,0.141-1.391,0.211-2.141,0.211c-1.094,0-2.115-0.156-3.063-0.469
		c-0.949-0.313-1.777-0.786-2.484-1.422c-0.709-0.635-1.266-1.439-1.672-2.414c-0.406-0.974-0.609-2.111-0.609-3.414
		c0-1.458,0.234-2.708,0.703-3.75c0.469-1.041,1.074-1.888,1.82-2.539c0.744-0.65,1.582-1.13,2.516-1.438
		c0.932-0.307,1.852-0.461,2.758-0.461c0.676,0,1.328,0.061,1.953,0.18c0.625,0.12,1.191,0.284,1.703,0.492v3.016
		c-0.459-0.197-0.945-0.356-1.461-0.477c-0.516-0.119-1.07-0.18-1.664-0.18s-1.162,0.092-1.703,0.273
		c-0.543,0.183-1.021,0.472-1.438,0.867c-0.418,0.396-0.748,0.92-0.992,1.57c-0.246,0.651-0.367,1.436-0.367,2.352
		c0,0.667,0.094,1.295,0.281,1.883c0.188,0.589,0.461,1.092,0.82,1.508c0.359,0.417,0.816,0.753,1.375,1.008
		c0.557,0.256,1.215,0.383,1.977,0.383c0.676,0,1.291-0.067,1.844-0.203c0.551-0.135,1.072-0.302,1.563-0.5V46.902z M210.682,39.668
		c0,1.188-0.178,2.271-0.531,3.25c-0.355,0.979-0.863,1.818-1.523,2.516c-0.662,0.698-1.461,1.237-2.398,1.617
		s-1.984,0.57-3.141,0.57c-1.188,0-2.254-0.19-3.195-0.57c-0.943-0.38-1.742-0.919-2.398-1.617c-0.656-0.697-1.16-1.536-1.508-2.516
		c-0.35-0.979-0.523-2.063-0.523-3.25s0.176-2.271,0.531-3.25c0.354-0.979,0.861-1.817,1.523-2.516
		c0.66-0.697,1.461-1.236,2.398-1.617c0.938-0.38,1.984-0.57,3.141-0.57c1.188,0,2.252,0.19,3.195,0.57
		c0.941,0.381,1.742,0.92,2.398,1.617c0.656,0.698,1.158,1.537,1.508,2.516C210.506,37.397,210.682,38.48,210.682,39.668z
		 M206.854,39.668c0-0.802-0.094-1.51-0.281-2.125c-0.188-0.614-0.449-1.13-0.781-1.547c-0.334-0.416-0.734-0.729-1.203-0.938
		c-0.469-0.208-0.98-0.313-1.531-0.313c-0.543,0-1.045,0.104-1.508,0.313c-0.465,0.209-0.863,0.521-1.195,0.938
		c-0.334,0.417-0.594,0.933-0.781,1.547c-0.188,0.615-0.281,1.323-0.281,2.125c0,0.803,0.094,1.511,0.281,2.125
		c0.188,0.615,0.449,1.128,0.789,1.539c0.338,0.412,0.738,0.725,1.203,0.938c0.463,0.214,0.971,0.32,1.523,0.32
		c0.551,0,1.057-0.106,1.516-0.32c0.457-0.213,0.854-0.525,1.188-0.938c0.332-0.411,0.594-0.924,0.781-1.539
		C206.76,41.179,206.854,40.471,206.854,39.668z M233.463,38.012c0-0.322-0.012-0.625-0.031-0.906
		c-0.021-0.281-0.059-0.525-0.109-0.734c-0.115-0.458-0.34-0.828-0.672-1.109c-0.334-0.281-0.803-0.427-1.406-0.438
		c-0.324,0-0.656,0.047-1,0.141s-0.686,0.227-1.023,0.398c-0.34,0.172-0.662,0.381-0.969,0.625c-0.309,0.245-0.586,0.519-0.836,0.82
		V47.23h-3.703v-9.219c0-0.322-0.012-0.625-0.031-0.906c-0.021-0.281-0.059-0.525-0.109-0.734c-0.115-0.458-0.336-0.828-0.664-1.109
		s-0.801-0.427-1.414-0.438c-0.324,0-0.656,0.047-1,0.141s-0.686,0.227-1.023,0.398c-0.34,0.172-0.662,0.381-0.969,0.625
		c-0.309,0.245-0.586,0.519-0.836,0.82V47.23h-3.703V32.09h3.063l0.344,2.109h0.063c0.219-0.313,0.494-0.619,0.828-0.922
		c0.332-0.302,0.711-0.567,1.133-0.797c0.422-0.229,0.885-0.414,1.391-0.555c0.504-0.141,1.039-0.211,1.602-0.211
		c1,0,1.898,0.222,2.695,0.664c0.797,0.443,1.402,1.133,1.82,2.07h0.063c0.291-0.406,0.617-0.775,0.977-1.109
		c0.359-0.333,0.758-0.619,1.195-0.859c0.438-0.239,0.908-0.427,1.414-0.563c0.504-0.135,1.043-0.203,1.617-0.203
		c1.082,0.011,1.992,0.237,2.727,0.68c0.734,0.443,1.299,1.05,1.695,1.82c0.104,0.198,0.191,0.414,0.266,0.648
		c0.072,0.234,0.133,0.498,0.18,0.789c0.047,0.292,0.08,0.615,0.102,0.969c0.02,0.354,0.031,0.761,0.031,1.219v9.391h-3.703V38.012z
		"/>
	<linearGradient id="SVGID_2_" gradientUnits="userSpaceOnUse" x1="174.4238" y1="46.5" x2="174.4238" y2="42.5">
		<stop  offset="0" style="stop-color:#CB912B"/>
		<stop  offset="1" style="stop-color:#FCB31C"/>
	</linearGradient>
	<rect x="172.322" y="42.059" fill="url(#SVGID_2_)" width="4.203" height="4.172"/>
	<linearGradient id="SVGID_3_" gradientUnits="userSpaceOnUse" x1="126.1426" y1="53.667" x2="126.1426" y2="20.6661">
		<stop  offset="0" style="stop-color:#EBEBEB"/>
		<stop  offset="1" style="stop-color:#D9D9D9"/>
	</linearGradient>
	<path fill="url(#SVGID_3_)" d="M24.822,48.215c0,1.416-0.224,2.51-0.672,3.281c-0.469,0.813-1.156,1.414-2.063,1.805
		s-1.979,0.586-3.219,0.586c-0.552,0-1.049-0.031-1.492-0.094c-0.442-0.063-0.862-0.151-1.258-0.266v-3.031
		c0.333,0.094,0.706,0.177,1.117,0.25c0.412,0.072,0.805,0.109,1.18,0.109c0.5,0,0.938-0.058,1.313-0.172
		c0.375-0.115,0.677-0.313,0.906-0.594c0.177-0.209,0.302-0.495,0.375-0.859c0.073-0.365,0.109-0.803,0.109-1.313V31.09h3.703
		V48.215z M21.025,23.605h3.891v4.016h-3.891V23.605z M43.416,38.668c0,1.188-0.177,2.271-0.531,3.25
		c-0.354,0.979-0.862,1.818-1.523,2.516c-0.662,0.698-1.461,1.237-2.398,1.617s-1.984,0.57-3.141,0.57
		c-1.188,0-2.253-0.19-3.195-0.57c-0.943-0.38-1.742-0.919-2.398-1.617c-0.656-0.697-1.159-1.536-1.508-2.516
		c-0.349-0.979-0.523-2.063-0.523-3.25s0.177-2.271,0.531-3.25c0.354-0.979,0.862-1.817,1.523-2.516
		c0.661-0.698,1.461-1.237,2.398-1.617c0.938-0.38,1.984-0.57,3.141-0.57c1.188,0,2.252,0.19,3.195,0.57
		c0.942,0.38,1.742,0.919,2.398,1.617c0.656,0.698,1.159,1.537,1.508,2.516C43.241,36.397,43.416,37.48,43.416,38.668z
		 M39.587,38.668c0-0.802-0.094-1.51-0.281-2.125c-0.188-0.614-0.448-1.13-0.781-1.547c-0.333-0.417-0.734-0.729-1.203-0.938
		c-0.469-0.208-0.979-0.313-1.531-0.313c-0.542,0-1.044,0.104-1.508,0.313c-0.464,0.208-0.862,0.521-1.195,0.938
		c-0.333,0.417-0.594,0.933-0.781,1.547c-0.188,0.615-0.281,1.323-0.281,2.125c0,0.803,0.094,1.511,0.281,2.125
		c0.188,0.615,0.45,1.128,0.789,1.539c0.338,0.412,0.739,0.725,1.203,0.938c0.463,0.214,0.971,0.32,1.523,0.32
		c0.552,0,1.057-0.106,1.516-0.32c0.458-0.213,0.854-0.525,1.188-0.938c0.333-0.411,0.594-0.924,0.781-1.539
		C39.494,40.179,39.587,39.471,39.587,38.668z M46.697,23.605h3.891v4.016h-3.891V23.605z M46.791,31.09h3.703V46.23h-3.703V31.09z
		 M58.056,33.199h0.063c0.219-0.313,0.495-0.62,0.828-0.922c0.333-0.302,0.713-0.567,1.141-0.797
		c0.427-0.229,0.898-0.414,1.414-0.555s1.065-0.211,1.648-0.211c0.552,0,1.086,0.063,1.602,0.188s0.987,0.32,1.414,0.586
		c0.427,0.266,0.805,0.609,1.133,1.031s0.586,0.925,0.773,1.508c0.104,0.323,0.174,0.675,0.211,1.055
		c0.036,0.38,0.055,0.82,0.055,1.32v9.828h-3.703v-9.25c0-0.406-0.016-0.755-0.047-1.047c-0.031-0.292-0.089-0.547-0.172-0.766
		c-0.188-0.479-0.472-0.823-0.852-1.031c-0.38-0.208-0.841-0.313-1.383-0.313c-0.719,0-1.409,0.169-2.07,0.508
		c-0.662,0.339-1.248,0.831-1.758,1.477V46.23H54.65V31.09h3.063L58.056,33.199z M81.306,44.621h-0.063
		c-0.208,0.219-0.458,0.443-0.75,0.672c-0.292,0.229-0.625,0.445-1,0.648s-0.792,0.367-1.25,0.492
		c-0.458,0.125-0.953,0.188-1.484,0.188c-0.719,0-1.391-0.112-2.016-0.336s-1.162-0.547-1.609-0.969
		c-0.448-0.422-0.8-0.932-1.055-1.531c-0.255-0.599-0.383-1.268-0.383-2.008c0-0.813,0.148-1.541,0.445-2.188
		c0.297-0.646,0.711-1.192,1.242-1.641c0.531-0.447,1.167-0.789,1.906-1.023c0.739-0.234,1.557-0.352,2.453-0.352
		c0.656,0,1.26,0.042,1.813,0.125c0.552,0.084,1.036,0.183,1.453,0.297v-0.609c0-0.354-0.06-0.695-0.18-1.023
		c-0.12-0.328-0.313-0.62-0.578-0.875c-0.266-0.255-0.612-0.458-1.039-0.609c-0.427-0.151-0.948-0.227-1.563-0.227
		c-0.75,0-1.5,0.083-2.25,0.25c-0.75,0.167-1.563,0.417-2.438,0.75v-2.891c0.76-0.333,1.567-0.588,2.422-0.766
		c0.854-0.177,1.75-0.271,2.688-0.281c1.104,0,2.07,0.136,2.898,0.406c0.828,0.271,1.521,0.644,2.078,1.117
		c0.557,0.474,0.974,1.034,1.25,1.68c0.276,0.646,0.414,1.349,0.414,2.109v5.703c0,1,0.01,1.859,0.031,2.578
		c0.021,0.719,0.042,1.359,0.063,1.922h-3.344L81.306,44.621z M81.009,39.777c-0.354-0.083-0.761-0.158-1.219-0.227
		c-0.458-0.067-0.922-0.102-1.391-0.102c-0.906,0-1.623,0.18-2.148,0.539c-0.526,0.359-0.789,0.909-0.789,1.648
		c0,0.344,0.06,0.644,0.18,0.898c0.12,0.256,0.281,0.467,0.484,0.633c0.203,0.167,0.44,0.292,0.711,0.375
		c0.271,0.084,0.557,0.125,0.859,0.125c0.375,0,0.729-0.049,1.063-0.148c0.333-0.099,0.641-0.224,0.922-0.375
		c0.281-0.15,0.534-0.32,0.758-0.508c0.224-0.188,0.414-0.369,0.57-0.547V39.777z M95.572,41.84c0-0.322-0.091-0.588-0.273-0.797
		c-0.183-0.208-0.425-0.383-0.727-0.523s-0.648-0.263-1.039-0.367c-0.391-0.104-0.8-0.208-1.227-0.313
		c-0.542-0.146-1.063-0.314-1.563-0.508c-0.5-0.192-0.94-0.445-1.32-0.758c-0.38-0.313-0.683-0.705-0.906-1.18
		c-0.224-0.474-0.336-1.055-0.336-1.742c0-0.844,0.151-1.575,0.453-2.195c0.302-0.62,0.711-1.133,1.227-1.539
		s1.114-0.708,1.797-0.906c0.683-0.198,1.403-0.297,2.164-0.297c0.927,0,1.797,0.076,2.609,0.227
		c0.813,0.151,1.547,0.347,2.203,0.586v3.016c-0.344-0.114-0.706-0.221-1.086-0.32c-0.38-0.099-0.766-0.185-1.156-0.258
		c-0.391-0.073-0.778-0.133-1.164-0.18s-0.75-0.07-1.094-0.07c-0.438,0-0.808,0.042-1.109,0.125
		c-0.302,0.083-0.547,0.195-0.734,0.336s-0.323,0.302-0.406,0.484c-0.083,0.183-0.125,0.373-0.125,0.57
		c0,0.344,0.091,0.625,0.273,0.844s0.435,0.396,0.758,0.531c0.323,0.136,0.661,0.248,1.016,0.336
		c0.354,0.089,0.698,0.175,1.031,0.258c0.521,0.125,1.042,0.276,1.563,0.453c0.521,0.178,0.989,0.425,1.406,0.742
		c0.417,0.318,0.758,0.729,1.023,1.234c0.266,0.506,0.398,1.148,0.398,1.93c0,0.854-0.161,1.6-0.484,2.234
		c-0.323,0.636-0.773,1.164-1.352,1.586s-1.271,0.734-2.078,0.938s-1.695,0.305-2.664,0.305c-0.958,0-1.82-0.076-2.586-0.227
		c-0.766-0.151-1.398-0.341-1.898-0.57V42.84c0.813,0.303,1.563,0.508,2.25,0.617s1.328,0.164,1.922,0.164
		c0.458,0,0.886-0.033,1.281-0.102c0.396-0.067,0.737-0.174,1.023-0.32c0.286-0.146,0.513-0.33,0.68-0.555
		C95.489,42.421,95.572,42.152,95.572,41.84z M112.556,32.793l0.156-1.703h3.25v22.406h-3.703v-6.297
		c0-0.448,0.005-0.862,0.016-1.242s0.021-0.674,0.031-0.883h-0.031c-0.229,0.188-0.492,0.373-0.789,0.555
		c-0.297,0.183-0.622,0.35-0.977,0.5s-0.739,0.271-1.156,0.359c-0.417,0.088-0.859,0.133-1.328,0.133
		c-0.802,0-1.586-0.144-2.352-0.43s-1.448-0.739-2.047-1.359c-0.599-0.619-1.078-1.419-1.438-2.398
		c-0.359-0.979-0.539-2.141-0.539-3.484c0-1.333,0.185-2.521,0.555-3.563c0.37-1.042,0.862-1.906,1.477-2.594
		s1.32-1.206,2.117-1.555c0.797-0.349,1.617-0.523,2.461-0.523c0.906,0,1.722,0.19,2.445,0.57c0.724,0.38,1.32,0.883,1.789,1.508
		H112.556z M108.947,43.668c0.375,0,0.729-0.047,1.063-0.141s0.641-0.213,0.922-0.359c0.281-0.146,0.534-0.307,0.758-0.484
		c0.224-0.177,0.414-0.354,0.57-0.531v-6.719c-0.386-0.469-0.854-0.877-1.406-1.227c-0.552-0.349-1.156-0.528-1.813-0.539
		c-0.375,0-0.769,0.076-1.18,0.227c-0.411,0.151-0.8,0.419-1.164,0.805c-0.364,0.386-0.659,0.919-0.883,1.602
		c-0.224,0.683-0.336,1.514-0.336,2.492c0,0.761,0.073,1.44,0.219,2.039c0.146,0.6,0.364,1.109,0.656,1.531s0.653,0.745,1.086,0.969
		C107.872,43.557,108.374,43.668,108.947,43.668z M126.713,46.621c-1.521,0-2.782-0.258-3.782-0.773s-1.755-1.211-2.266-2.086
		c-0.271-0.469-0.472-0.984-0.602-1.547s-0.195-1.188-0.195-1.875v-9.25h3.703v8.859c0,0.511,0.036,0.951,0.109,1.32
		c0.073,0.37,0.183,0.69,0.329,0.961c0.25,0.459,0.604,0.8,1.063,1.023c0.457,0.225,1.004,0.336,1.641,0.336
		c0.666,0,1.236-0.125,1.711-0.375c0.473-0.25,0.83-0.63,1.07-1.141c0.238-0.489,0.359-1.172,0.359-2.047V31.09h3.703v9.25
		c0,1.229-0.215,2.266-0.641,3.109c-0.24,0.479-0.551,0.914-0.93,1.305c-0.381,0.391-0.828,0.725-1.344,1
		c-0.516,0.276-1.1,0.489-1.75,0.641C128.24,46.545,127.514,46.621,126.713,46.621z M146.369,44.621h-0.063
		c-0.209,0.219-0.459,0.443-0.75,0.672c-0.293,0.229-0.625,0.445-1,0.648s-0.793,0.367-1.25,0.492
		c-0.459,0.125-0.953,0.188-1.484,0.188c-0.719,0-1.391-0.112-2.016-0.336s-1.162-0.547-1.609-0.969
		c-0.449-0.422-0.801-0.932-1.055-1.531c-0.256-0.599-0.383-1.268-0.383-2.008c0-0.813,0.148-1.541,0.445-2.188
		c0.297-0.646,0.711-1.192,1.242-1.641c0.531-0.447,1.166-0.789,1.906-1.023c0.738-0.234,1.557-0.352,2.453-0.352
		c0.656,0,1.26,0.042,1.813,0.125c0.551,0.084,1.035,0.183,1.453,0.297v-0.609c0-0.354-0.061-0.695-0.18-1.023
		c-0.121-0.328-0.313-0.62-0.578-0.875c-0.266-0.255-0.613-0.458-1.039-0.609c-0.428-0.151-0.949-0.227-1.563-0.227
		c-0.75,0-1.5,0.083-2.25,0.25c-0.75,0.167-1.563,0.417-2.438,0.75v-2.891c0.76-0.333,1.566-0.588,2.422-0.766
		c0.854-0.177,1.75-0.271,2.688-0.281c1.104,0,2.07,0.136,2.898,0.406c0.828,0.271,1.52,0.644,2.078,1.117
		c0.557,0.474,0.973,1.034,1.25,1.68c0.275,0.646,0.414,1.349,0.414,2.109v5.703c0,1,0.01,1.859,0.031,2.578
		c0.02,0.719,0.041,1.359,0.063,1.922h-3.344L146.369,44.621z M146.072,39.777c-0.355-0.083-0.762-0.158-1.219-0.227
		c-0.459-0.067-0.922-0.102-1.391-0.102c-0.906,0-1.623,0.18-2.148,0.539c-0.527,0.359-0.789,0.909-0.789,1.648
		c0,0.344,0.059,0.644,0.18,0.898c0.119,0.256,0.281,0.467,0.484,0.633c0.203,0.167,0.439,0.292,0.711,0.375
		c0.27,0.084,0.557,0.125,0.859,0.125c0.375,0,0.729-0.049,1.063-0.148c0.332-0.099,0.641-0.224,0.922-0.375
		c0.281-0.15,0.533-0.32,0.758-0.508c0.223-0.188,0.414-0.369,0.57-0.547V39.777z M153.15,38.965c0-1.322,0.182-2.502,0.547-3.539
		c0.363-1.036,0.861-1.906,1.492-2.609c0.629-0.703,1.352-1.229,2.164-1.578c0.813-0.349,1.656-0.523,2.531-0.523
		c0.406,0,0.791,0.037,1.156,0.109c0.363,0.073,0.707,0.172,1.031,0.297c0.322,0.125,0.625,0.266,0.906,0.422
		s0.541,0.318,0.781,0.484h0.031c-0.012-0.208-0.02-0.502-0.023-0.883c-0.006-0.38-0.008-0.794-0.008-1.242v-6.297h3.703V41.73
		c0,1,0.01,1.859,0.031,2.578c0.02,0.719,0.041,1.359,0.063,1.922h-3.344l-0.156-1.609h-0.063c-0.219,0.261-0.482,0.516-0.789,0.766
		c-0.309,0.25-0.646,0.467-1.016,0.648c-0.371,0.183-0.777,0.325-1.219,0.43c-0.443,0.104-0.926,0.156-1.445,0.156
		c-0.824,0-1.613-0.146-2.367-0.438c-0.756-0.291-1.434-0.742-2.031-1.352c-0.6-0.609-1.078-1.406-1.438-2.391
		S153.15,40.299,153.15,38.965z M160.447,43.668c0.363,0,0.711-0.047,1.039-0.141s0.637-0.219,0.93-0.375
		c0.291-0.156,0.549-0.328,0.773-0.516c0.223-0.188,0.414-0.369,0.57-0.547v-7.188c-0.438-0.354-0.928-0.648-1.469-0.883
		c-0.543-0.234-1.115-0.352-1.719-0.352c-0.387,0-0.789,0.078-1.211,0.234s-0.809,0.422-1.156,0.797
		c-0.35,0.375-0.641,0.896-0.875,1.563c-0.234,0.667-0.352,1.516-0.352,2.547c0,1.521,0.293,2.709,0.883,3.563
		C158.449,43.226,159.311,43.658,160.447,43.668z M192.041,45.902c-0.469,0.198-1.043,0.367-1.719,0.508
		c-0.678,0.141-1.391,0.211-2.141,0.211c-1.094,0-2.115-0.156-3.063-0.469c-0.949-0.313-1.777-0.786-2.484-1.422
		c-0.709-0.635-1.266-1.439-1.672-2.414c-0.406-0.974-0.609-2.111-0.609-3.414c0-1.458,0.234-2.708,0.703-3.75
		c0.469-1.042,1.074-1.888,1.82-2.539c0.744-0.651,1.582-1.13,2.516-1.438c0.932-0.307,1.852-0.461,2.758-0.461
		c0.676,0,1.328,0.06,1.953,0.18c0.625,0.12,1.191,0.284,1.703,0.492v3.016c-0.459-0.198-0.945-0.356-1.461-0.477
		c-0.516-0.12-1.07-0.18-1.664-0.18s-1.162,0.091-1.703,0.273c-0.543,0.183-1.021,0.472-1.438,0.867
		c-0.418,0.396-0.748,0.919-0.992,1.57c-0.246,0.651-0.367,1.436-0.367,2.352c0,0.667,0.094,1.295,0.281,1.883
		c0.188,0.589,0.461,1.092,0.82,1.508c0.359,0.417,0.816,0.753,1.375,1.008c0.557,0.256,1.215,0.383,1.977,0.383
		c0.676,0,1.291-0.067,1.844-0.203c0.551-0.135,1.072-0.302,1.563-0.5V45.902z M209.682,38.668c0,1.188-0.178,2.271-0.531,3.25
		c-0.355,0.979-0.863,1.818-1.523,2.516c-0.662,0.698-1.461,1.237-2.398,1.617s-1.984,0.57-3.141,0.57
		c-1.188,0-2.254-0.19-3.195-0.57c-0.943-0.38-1.742-0.919-2.398-1.617c-0.656-0.697-1.16-1.536-1.508-2.516
		c-0.35-0.979-0.523-2.063-0.523-3.25s0.176-2.271,0.531-3.25c0.354-0.979,0.861-1.817,1.523-2.516
		c0.66-0.698,1.461-1.237,2.398-1.617c0.938-0.38,1.984-0.57,3.141-0.57c1.188,0,2.252,0.19,3.195,0.57
		c0.941,0.38,1.742,0.919,2.398,1.617c0.656,0.698,1.158,1.537,1.508,2.516C209.506,36.397,209.682,37.48,209.682,38.668z
		 M205.854,38.668c0-0.802-0.094-1.51-0.281-2.125c-0.188-0.614-0.449-1.13-0.781-1.547c-0.334-0.417-0.734-0.729-1.203-0.938
		c-0.469-0.208-0.98-0.313-1.531-0.313c-0.543,0-1.045,0.104-1.508,0.313c-0.465,0.208-0.863,0.521-1.195,0.938
		c-0.334,0.417-0.594,0.933-0.781,1.547c-0.188,0.615-0.281,1.323-0.281,2.125c0,0.803,0.094,1.511,0.281,2.125
		c0.188,0.615,0.449,1.128,0.789,1.539c0.338,0.412,0.738,0.725,1.203,0.938c0.463,0.214,0.971,0.32,1.523,0.32
		c0.551,0,1.057-0.106,1.516-0.32c0.457-0.213,0.854-0.525,1.188-0.938c0.332-0.411,0.594-0.924,0.781-1.539
		C205.76,40.179,205.854,39.471,205.854,38.668z M232.463,37.012c0-0.322-0.012-0.625-0.031-0.906
		c-0.021-0.281-0.059-0.526-0.109-0.734c-0.115-0.458-0.34-0.828-0.672-1.109c-0.334-0.281-0.803-0.427-1.406-0.438
		c-0.324,0-0.656,0.047-1,0.141s-0.686,0.227-1.023,0.398c-0.34,0.172-0.662,0.38-0.969,0.625c-0.309,0.245-0.586,0.519-0.836,0.82
		V46.23h-3.703v-9.219c0-0.322-0.012-0.625-0.031-0.906c-0.021-0.281-0.059-0.526-0.109-0.734c-0.115-0.458-0.336-0.828-0.664-1.109
		s-0.801-0.427-1.414-0.438c-0.324,0-0.656,0.047-1,0.141s-0.686,0.227-1.023,0.398c-0.34,0.172-0.662,0.38-0.969,0.625
		c-0.309,0.245-0.586,0.519-0.836,0.82V46.23h-3.703V31.09h3.063l0.344,2.109h0.063c0.219-0.313,0.494-0.62,0.828-0.922
		c0.332-0.302,0.711-0.567,1.133-0.797c0.422-0.229,0.885-0.414,1.391-0.555c0.504-0.141,1.039-0.211,1.602-0.211
		c1,0,1.898,0.222,2.695,0.664c0.797,0.443,1.402,1.133,1.82,2.07h0.063c0.291-0.406,0.617-0.776,0.977-1.109
		c0.359-0.333,0.758-0.62,1.195-0.859c0.438-0.239,0.908-0.427,1.414-0.563c0.504-0.135,1.043-0.203,1.617-0.203
		c1.082,0.011,1.992,0.237,2.727,0.68c0.734,0.443,1.299,1.05,1.695,1.82c0.104,0.198,0.191,0.414,0.266,0.648
		c0.072,0.234,0.133,0.498,0.18,0.789c0.047,0.292,0.08,0.615,0.102,0.969c0.02,0.354,0.031,0.761,0.031,1.219v9.391h-3.703V37.012z
		"/>
</g>
</svg>
